# xmcd CD database file
#
# Track frame offsets:
#	150
#	14246
#	45136
#	65967
#	87720
#	108753
#	125246
#	148823
#	174786
#	189313
#	219707
#	244350
#	267010
#	293620
#	320856
#	335753
#
# Disc length: 4712 seconds
#
# Revision: 0
# Processed by: cddbd v1.5.2PL0 Copyright (c) Steve Scherf et al.
# Submitted via: CDex 1.70beta2
#
DISCID=01126610
DTITLE=Various Artist - Best Jazz Ballads 100 Vol.2
DYEAR=2007
DGENRE=Jazz
TTITLE0=June Christy - Misty
TTITLE1=Ike Quebec - I've Got A Crush On You
TTITLE2=Miles Davis - How Deep Is The Ocean
TTITLE3=Duke Pearson - I'm Glad There Is You
TTITLE4=Lou Donaldson - The Nearness Of You
TTITLE5=Dinah Shore - My Melancholy Baby
TTITLE6=Dexter Gordon - Who Can I Turn To
TTITLE7=Donald Byrd - Everything Happens To Me
TTITLE8=Bud Powell - It Could Happen To You
TTITLE9=Cliff Jordan - Sophisticated Lady
TTITLE10=Kenny Burell - If You Could See Me Now
TTITLE11=Johnny Hartman - Violets For your Furs
TTITLE12=Art Farmer - Like Someone In Love
TTITLE13=Tina Brooks - For Heavens Sake
TTITLE14=June Hutton - I Sould Care
TTITLE15=Stanley Turrentine - God Bless The Child
EXTD=YEAR: 2007
EXTT0=
EXTT1=
EXTT2=
EXTT3=
EXTT4=
EXTT5=
EXTT6=
EXTT7=
EXTT8=
EXTT9=
EXTT10=
EXTT11=
EXTT12=
EXTT13=
EXTT14=
EXTT15=
PLAYORDER=
